<svg xmlns="http://www.w3.org/2000/svg" xmlns:xlink="http://www.w3.org/1999/xlink" width="400" zoomAndPan="magnify" viewBox="0 0 300 299.999988" height="400" preserveAspectRatio="xMidYMid meet" version="1.0"><defs><clipPath id="baf11dca95"><path d="M 6.367188 6.367188 L 293.617188 6.367188 L 293.617188 293 L 6.367188 293 Z M 6.367188 6.367188 " clip-rule="nonzero"/></clipPath><clipPath id="eca8e879b7"><path d="M 85 59 L 217 59 L 217 293.617188 L 85 293.617188 Z M 85 59 " clip-rule="nonzero"/></clipPath></defs><g clip-path="url(#baf11dca95)"><path fill="#0866ff" d="M 293.65625 150.019531 C 293.65625 70.675781 229.347656 6.367188 150.019531 6.367188 C 70.691406 6.367188 6.367188 70.675781 6.367188 150.019531 C 6.367188 217.382812 52.742188 273.917969 115.3125 289.441406 L 115.3125 193.917969 L 85.683594 193.917969 L 85.683594 150.019531 L 115.3125 150.019531 L 115.3125 131.105469 C 115.3125 82.214844 137.4375 59.550781 185.433594 59.550781 C 194.539062 59.550781 210.242188 61.328125 216.660156 63.121094 L 216.660156 102.910156 C 213.269531 102.546875 207.378906 102.367188 200.070312 102.367188 C 176.511719 102.367188 167.410156 111.289062 167.410156 134.484375 L 167.410156 150.007812 L 214.328125 150.007812 L 206.269531 193.90625 L 167.410156 193.90625 L 167.410156 292.601562 C 238.539062 284.011719 293.65625 223.441406 293.65625 150.007812 Z M 293.65625 150.019531 " fill-opacity="1" fill-rule="nonzero"/></g><g clip-path="url(#eca8e879b7)"><path fill="#ffffff" d="M 206.28125 193.90625 L 214.339844 150.007812 L 167.425781 150.007812 L 167.425781 134.484375 C 167.425781 111.289062 176.527344 102.367188 200.082031 102.367188 C 207.390625 102.367188 213.285156 102.546875 216.675781 102.910156 L 216.675781 63.121094 C 210.253906 61.34375 194.550781 59.550781 185.449219 59.550781 C 137.449219 59.550781 115.324219 82.214844 115.324219 131.105469 L 115.324219 150.019531 L 85.695312 150.019531 L 85.695312 193.917969 L 115.324219 193.917969 L 115.324219 289.441406 C 126.4375 292.199219 138.054688 293.667969 150.03125 293.667969 C 155.925781 293.667969 161.726562 293.308594 167.4375 292.613281 L 167.4375 193.917969 L 206.296875 193.917969 Z M 206.28125 193.90625 " fill-opacity="1" fill-rule="nonzero"/></g></svg>