<svg xmlns="http://www.w3.org/2000/svg" xmlns:xlink="http://www.w3.org/1999/xlink" width="400" zoomAndPan="magnify" viewBox="0 0 300 299.999988" height="400" preserveAspectRatio="xMidYMid meet" version="1.0"><defs><clipPath id="604c724c6a"><path d="M 6.367188 5.601562 L 293 5.601562 L 293 293 L 6.367188 293 Z M 6.367188 5.601562 " clip-rule="nonzero"/></clipPath></defs><g clip-path="url(#604c724c6a)"><path fill="#0a66c2" d="M 250.519531 249.714844 L 208.066406 249.714844 L 208.066406 183.300781 C 208.066406 167.46875 207.78125 147.078125 185.988281 147.078125 C 164.195312 147.078125 160.492188 164.335938 160.492188 182.152344 L 160.492188 249.714844 L 118.039062 249.714844 L 118.039062 113.132812 L 158.804688 113.132812 L 158.804688 131.796875 L 159.371094 131.796875 C 167.679688 117.601562 183.136719 109.125 199.582031 109.730469 C 242.613281 109.730469 250.546875 138.007812 250.546875 174.785156 L 250.546875 249.714844 Z M 70.113281 94.46875 C 56.507812 94.46875 45.46875 83.457031 45.46875 69.863281 C 45.46875 56.273438 56.496094 45.246094 70.101562 45.246094 C 83.707031 45.246094 94.746094 56.261719 94.746094 69.851562 C 94.746094 83.441406 83.722656 94.46875 70.113281 94.46875 M 91.355469 249.714844 L 48.847656 249.714844 L 48.847656 113.132812 L 91.355469 113.132812 Z M 271.691406 5.851562 L 27.511719 5.851562 C 15.976562 5.730469 6.503906 14.960938 6.367188 26.488281 L 6.367188 271.402344 C 6.503906 282.941406 15.960938 292.171875 27.511719 292.050781 L 271.691406 292.050781 C 283.257812 292.199219 292.753906 282.957031 292.917969 271.402344 L 292.917969 26.472656 C 292.753906 14.921875 283.257812 5.691406 271.691406 5.839844 " fill-opacity="1" fill-rule="nonzero"/></g></svg>