<svg xmlns="http://www.w3.org/2000/svg" xmlns:xlink="http://www.w3.org/1999/xlink" width="400" zoomAndPan="magnify" viewBox="0 0 300 299.999988" height="400" preserveAspectRatio="xMidYMid meet" version="1.0"><defs><clipPath id="7f05f795a7"><path d="M 113 274 L 162 274 L 162 292.613281 L 113 292.613281 Z M 113 274 " clip-rule="nonzero"/></clipPath><clipPath id="3ade1c1d88"><path d="M 45 7.613281 L 207 7.613281 L 207 136 L 45 136 Z M 45 7.613281 " clip-rule="nonzero"/></clipPath><clipPath id="ff3c53f759"><path d="M 17.105469 32.925781 L 282.878906 32.925781 L 282.878906 227.832031 L 17.105469 227.832031 Z M 17.105469 32.925781 " clip-rule="nonzero"/></clipPath></defs><path fill="#000000" d="M 183.433594 264.035156 C 183.066406 263.835938 182.648438 263.5625 182.214844 263.257812 C 181.542969 263.6875 180.867188 264.117188 180.1875 264.539062 C 179.734375 265.085938 179.011719 265.71875 178.425781 265.761719 C 178.425781 265.761719 178.421875 265.761719 178.421875 265.761719 C 178.386719 265.761719 178.34375 265.765625 178.304688 265.765625 C 178.28125 265.765625 178.25 265.753906 178.222656 265.753906 C 175.242188 267.582031 172.273438 269.335938 169.367188 270.992188 L 166.320312 279.617188 C 173.367188 275.761719 181.207031 271.191406 188.765625 266.195312 C 188.066406 265.863281 187.347656 265.5625 186.59375 265.335938 C 185.609375 265.023438 184.546875 264.644531 183.433594 264.035156 " fill-opacity="1" fill-rule="nonzero"/><path fill="#000000" d="M 237.492188 83.007812 C 237.507812 82.550781 237.527344 82.089844 237.546875 81.644531 C 236.328125 81.179688 234.921875 80.847656 233.3125 80.707031 C 232.929688 80.671875 232.507812 80.65625 232.058594 80.65625 C 231.84375 80.65625 231.601562 80.679688 231.375 80.683594 C 231.3125 82.238281 231.242188 83.835938 231.171875 85.484375 C 232.929688 83.917969 235.136719 83.003906 237.441406 83.003906 C 237.457031 83.003906 237.472656 83.007812 237.492188 83.007812 " fill-opacity="1" fill-rule="nonzero"/><g clip-path="url(#7f05f795a7)"><path fill="#000000" d="M 140.875 285.78125 C 137.765625 284.289062 129.539062 280.242188 119.621094 274.683594 C 119.4375 274.882812 119.257812 275.085938 119.058594 275.269531 C 117.492188 276.765625 115.664062 277.734375 113.933594 278.402344 C 127.425781 286.105469 138.433594 291.265625 139.507812 291.761719 L 140.832031 292.378906 L 142.167969 291.777344 C 143.074219 291.371094 150.910156 287.808594 161.386719 282.269531 C 160.117188 281.8125 157.320312 280.730469 154.375 279.125 C 148.058594 282.382812 143.125 284.730469 140.875 285.78125 " fill-opacity="1" fill-rule="nonzero"/></g><path fill="#000000" d="M 215.558594 233.195312 C 213.921875 236.472656 211.320312 239.835938 208.078125 243.203125 L 208.511719 243.355469 L 207.765625 243.53125 C 203.226562 248.183594 197.441406 252.828125 191.167969 257.265625 C 193.003906 258.304688 194.628906 259.675781 195.933594 261.261719 C 207.144531 253.1875 216.859375 244.328125 221.132812 235.765625 C 225.507812 227.011719 228.902344 203.773438 231.488281 176.703125 L 225.125 178.453125 C 222.667969 203.855469 219.515625 225.269531 215.558594 233.195312 " fill-opacity="1" fill-rule="nonzero"/><path fill="#000000" d="M 90.929688 263.058594 C 91.894531 262.148438 92.046875 260.449219 92.007812 259.183594 C 91.984375 258.625 91.96875 257.964844 91.972656 257.257812 C 81.296875 249.519531 72.03125 241.109375 68.082031 233.195312 C 66.882812 230.789062 65.753906 227.125 64.699219 222.5 L 58.800781 224.117188 C 59.949219 229.125 61.179688 233.117188 62.503906 235.765625 C 67.175781 245.121094 78.117188 254.828125 90.328125 263.488281 C 90.550781 263.355469 90.757812 263.21875 90.929688 263.058594 " fill-opacity="1" fill-rule="nonzero"/><path fill="#000000" d="M 238.1875 65.234375 L 237.796875 65.679688 C 237.550781 65.960938 235.890625 67.851562 233.257812 70.648438 C 234.859375 70.523438 236.4375 70.445312 237.996094 70.40625 C 238.066406 68.546875 238.128906 66.824219 238.1875 65.234375 " fill-opacity="1" fill-rule="nonzero"/><path fill="#000000" d="M 55.324219 138.285156 C 55.175781 138.441406 55.023438 138.601562 54.878906 138.757812 C 54.808594 139.246094 54.648438 139.785156 54.394531 140.40625 C 53.566406 142.394531 51.890625 145.175781 49.78125 148.074219 C 49.957031 150.503906 50.140625 152.933594 50.324219 155.355469 L 56.40625 153.683594 C 56.023438 148.5625 55.664062 143.414062 55.324219 138.285156 " fill-opacity="1" fill-rule="nonzero"/><g clip-path="url(#3ade1c1d88)"><path fill="#000000" d="M 48.902344 135.160156 C 49.375 134.953125 49.804688 134.804688 50.160156 134.738281 C 51.769531 133.050781 53.304688 131.4375 54.789062 129.875 C 52.65625 95.265625 51.582031 63.644531 51.324219 55.632812 L 143.34375 13.851562 L 202.164062 41.457031 C 203.886719 39.839844 205.46875 38.347656 206.84375 37.035156 L 144.796875 7.917969 L 144.011719 7.613281 L 142.601562 7.613281 L 45.023438 51.917969 L 45.082031 53.859375 C 45.171875 56.980469 46.28125 94.597656 48.902344 135.160156 " fill-opacity="1" fill-rule="nonzero"/></g><path fill="#000000" d="M 238.558594 53.859375 L 238.613281 51.945312 L 232.742188 49.191406 C 236.019531 55.539062 237.800781 60.785156 238.285156 62.304688 C 238.449219 57.632812 238.535156 54.644531 238.558594 53.859375 " fill-opacity="1" fill-rule="nonzero"/><path fill="#000000" d="M 96.238281 177.316406 L 100.941406 176.066406 L 96.515625 168.945312 Z M 96.238281 177.316406 " fill-opacity="1" fill-rule="nonzero"/><g clip-path="url(#ff3c53f759)"><path fill="#000000" d="M 236.25 152.414062 L 234.539062 150.449219 C 234.386719 150.988281 234.046875 151.558594 233.5625 152.113281 C 232.660156 153.140625 231.242188 154.085938 229.449219 154.5625 C 228.671875 154.769531 227.898438 154.890625 227.132812 154.941406 C 221.6875 155.289062 216.632812 151.71875 214.832031 144.921875 C 212.757812 137.101562 216.746094 130.28125 222.339844 128.796875 C 225.773438 127.886719 227.738281 128.496094 228.894531 129.140625 C 229.496094 129.472656 229.890625 129.8125 230.140625 129.957031 L 230.207031 127.171875 L 235.316406 125.816406 L 235.550781 125.753906 L 238.359375 136.335938 L 234.597656 137.335938 L 231.9375 138.042969 C 231.324219 136.03125 230.011719 134.878906 228.558594 134.550781 C 227.929688 134.40625 227.277344 134.398438 226.640625 134.570312 C 223.730469 135.34375 222.5625 139.03125 223.515625 142.621094 C 224.207031 145.226562 225.71875 147.203125 227.65625 147.839844 C 228.441406 148.09375 229.285156 148.15625 230.179688 147.917969 C 232.226562 147.375 232.867188 146.320312 233.15625 145.246094 L 232.757812 143.738281 L 230.570312 144.320312 L 229.550781 140.480469 L 234.472656 139.171875 L 241.464844 137.320312 L 242.480469 141.160156 L 241.046875 141.539062 L 243.425781 150.507812 Z M 204.789062 160.761719 L 192.007812 149.519531 L 194.40625 158.5625 L 197.175781 157.828125 L 198.398438 162.457031 L 187.386719 165.378906 L 186.15625 160.75 L 188.273438 160.191406 L 184.078125 144.367188 L 181.996094 144.917969 L 180.769531 140.289062 L 191.066406 137.558594 L 203.347656 148.394531 L 201.082031 139.851562 L 198.640625 140.5 L 197.414062 135.875 L 208.214844 133.007812 L 209.441406 137.636719 L 207.074219 138.265625 L 212.5 158.714844 Z M 171.886719 169.492188 L 170.621094 164.722656 L 172.882812 164.121094 L 168.75 148.550781 L 166.488281 149.148438 L 165.230469 144.414062 L 177.144531 141.253906 L 178.402344 145.988281 L 176.175781 146.578125 L 180.3125 162.148438 L 182.53125 161.558594 L 183.796875 166.332031 Z M 159.105469 167.777344 L 162.085938 166.984375 L 163.351562 171.757812 L 150.003906 175.296875 L 148.738281 170.527344 L 151.679688 169.746094 L 147.546875 154.175781 L 144.460938 154.992188 L 145.679688 159.585938 L 140.410156 160.984375 L 137.933594 151.65625 L 162.007812 145.269531 L 164.484375 154.597656 L 159.207031 155.996094 L 157.988281 151.40625 L 154.972656 152.203125 Z M 126.210938 166.519531 L 133.023438 164.710938 L 134.289062 169.480469 L 127.476562 171.292969 L 128.683594 175.847656 L 132.34375 174.878906 L 133.609375 179.648438 L 120.261719 183.191406 L 118.996094 178.421875 L 121.222656 177.828125 L 117.089844 162.257812 L 114.863281 162.847656 L 113.609375 158.113281 L 135.066406 152.417969 L 137.167969 160.347656 L 130.816406 162.035156 L 129.96875 158.839844 L 124.554688 160.277344 Z M 102.648438 187.867188 L 101.402344 183.167969 L 104.808594 182.261719 L 103.410156 180.019531 L 96.054688 181.972656 L 95.945312 184.613281 L 98.746094 183.871094 L 99.992188 188.570312 L 88.582031 191.597656 L 87.335938 186.898438 L 89.777344 186.25 L 90.441406 169.210938 L 88.96875 169.601562 L 87.738281 164.976562 L 101.519531 161.320312 L 113.28125 180.015625 L 115.789062 179.347656 L 117.035156 184.046875 Z M 80.769531 194.132812 C 76.070312 195.378906 73.15625 193.503906 72.039062 189.304688 C 71.175781 186.042969 70.570312 185.355469 67.378906 186.203125 L 68.851562 191.761719 L 71.042969 191.183594 L 72.296875 195.917969 L 60.789062 198.972656 L 60.707031 198.996094 L 59.449219 194.257812 L 60.183594 194.066406 L 61.460938 193.726562 L 59.195312 185.183594 L 57.308594 178.082031 L 55.300781 178.617188 L 54.050781 173.917969 L 57.996094 172.871094 L 65.714844 170.820312 C 74.039062 168.613281 76.53125 171.484375 77.613281 175.574219 C 78.355469 178.375 76.65625 180.9375 73.792969 182.15625 C 76.363281 181.859375 79.160156 183.421875 79.84375 186.007812 C 80.253906 187.550781 80.707031 188.386719 81.351562 188.214844 C 81.890625 188.074219 82.0625 187.570312 81.875 186.847656 L 81.558594 185.664062 L 83.960938 185.027344 L 84.488281 187.003906 C 85.277344 189.980469 84.757812 193.074219 80.769531 194.132812 Z M 64.476562 119.71875 C 64.507812 119.683594 64.539062 119.648438 64.574219 119.617188 C 64.5 116.871094 64.570312 113.8125 65.023438 111.375 C 65.820312 107.113281 67.003906 102.308594 71.84375 94.664062 C 72.648438 93.394531 73.488281 92.363281 74.324219 91.515625 C 74.179688 92.183594 74.09375 92.875 74.09375 93.582031 L 74.832031 108.59375 C 74.835938 108.691406 74.859375 108.785156 74.871094 108.882812 C 85.117188 98.25 89.5625 93.796875 91.480469 91.945312 C 91.929688 91.511719 92.492188 91.242188 93.101562 91.152344 C 93.234375 91.132812 93.367188 91.113281 93.503906 91.113281 C 92.847656 91.621094 92.074219 91.988281 91.515625 92.621094 C 91.351562 92.808594 91.207031 93.042969 91.242188 93.292969 C 91.277344 93.535156 91.59375 93.734375 91.789062 93.582031 C 91.804688 93.652344 91.796875 93.722656 91.796875 93.792969 C 89.46875 96.085938 84.761719 100.835938 75.28125 110.683594 C 72.578125 113.492188 69.464844 116.738281 65.933594 120.433594 C 65.824219 120.316406 65.691406 120.195312 65.492188 120.070312 C 65.117188 119.839844 64.789062 119.738281 64.476562 119.71875 Z M 81.433594 82.890625 C 81.476562 82.859375 81.511719 82.8125 81.550781 82.777344 C 82.160156 83.296875 82.945312 83.746094 83.914062 84.050781 L 83.628906 84.050781 C 83.390625 84.050781 83.152344 84.070312 82.917969 84.085938 C 82.019531 83.867188 81.664062 83.671875 80.941406 83.148438 C 80.9375 83.148438 80.925781 83.152344 80.925781 83.152344 C 81.113281 83.074219 81.289062 82.988281 81.433594 82.890625 Z M 82.335938 75.804688 C 82.335938 75.804688 81.949219 74.382812 84.65625 75.03125 C 85.882812 75.320312 88.71875 75.03125 91.453125 74.625 C 91.285156 76.953125 90.753906 80.046875 89.164062 81.726562 C 88.429688 82.507812 87.546875 82.890625 86.46875 82.890625 C 84.230469 82.890625 82.9375 82.058594 82.195312 81.257812 C 82.613281 79.121094 82.335938 75.804688 82.335938 75.804688 Z M 97.828125 84.691406 C 97.242188 85.886719 95.871094 87.804688 94.328125 89.570312 C 93.804688 88.441406 93.066406 87.4375 92.167969 86.601562 C 93.800781 85.734375 96.085938 84.769531 97.828125 84.691406 Z M 49.328125 141.601562 C 49.070312 142.027344 48.800781 142.445312 48.503906 142.839844 C 47.8125 143.8125 46.960938 144.636719 46.15625 145.5 C 44.5 147.191406 42.757812 148.804688 40.742188 150.167969 C 41.902344 148.027344 43.339844 146.140625 44.863281 144.324219 C 45.644531 143.441406 46.386719 142.515625 47.285156 141.730469 C 47.878906 141.195312 48.539062 140.710938 49.238281 140.269531 C 49.574219 140.054688 49.902344 139.832031 50.28125 139.660156 C 50.03125 140.371094 49.695312 141 49.328125 141.601562 Z M 122.042969 64.292969 C 122.082031 64.253906 122.121094 64.21875 122.160156 64.191406 C 122.359375 64.058594 122.605469 63.863281 122.53125 63.636719 C 122.484375 63.511719 122.355469 63.4375 122.226562 63.386719 C 121.570312 63.121094 120.792969 63.164062 120.167969 63.5 C 119.542969 63.832031 118.867188 64.089844 118.320312 64.425781 C 118.347656 64.394531 118.375 64.363281 118.398438 64.328125 L 108.183594 63.289062 C 108.234375 63.167969 108.34375 62.984375 108.582031 62.894531 L 119.316406 63.480469 C 119.601562 63.308594 119.910156 63.175781 120.246094 63.101562 L 123.9375 62.292969 L 132.445312 60.4375 L 132.726562 60.375 L 136.050781 59.648438 L 137.332031 59.371094 L 137.644531 59.304688 L 163.128906 53.738281 C 163.390625 54.0625 163.765625 54.492188 164.242188 55.078125 L 139.289062 60.523438 L 135.054688 61.449219 L 132.875 61.925781 L 124.460938 63.761719 L 122.828125 64.117188 Z M 130.183594 51.878906 C 130.183594 51.878906 129.796875 50.464844 132.503906 51.105469 C 133.730469 51.398438 136.566406 51.109375 139.304688 50.703125 C 139.136719 53.03125 138.605469 56.121094 137.015625 57.804688 C 136.5625 58.285156 136.046875 58.597656 135.472656 58.777344 C 135.113281 58.894531 134.734375 58.96875 134.316406 58.96875 C 133.371094 58.96875 132.597656 58.8125 131.953125 58.582031 C 131.078125 58.265625 130.472656 57.796875 130.042969 57.335938 C 130.460938 55.199219 130.183594 51.878906 130.183594 51.878906 Z M 167.371094 57.558594 C 168.289062 58.09375 169.527344 58.132812 170.628906 58.03125 C 172.15625 57.890625 172.835938 57.210938 172.933594 56.347656 L 179.488281 54.914062 C 179.886719 55.441406 181.542969 55.675781 183.863281 55.675781 C 184.660156 55.675781 185.546875 55.640625 186.476562 55.589844 C 186.039062 55.863281 185.59375 56.144531 185.152344 56.425781 C 184.730469 56.691406 184.308594 56.953125 183.882812 57.222656 C 169.6875 66.136719 153.367188 76.261719 143.074219 82.234375 L 143.074219 68.117188 C 143.074219 66.871094 142.828125 65.6875 142.394531 64.597656 L 122.796875 68.875 C 123.53125 68.628906 124.160156 68.046875 124.359375 67.300781 C 124.394531 67.183594 124.386719 67.0625 124.398438 66.945312 L 141.675781 63.167969 Z M 255.992188 137.003906 L 266.371094 99.246094 L 256.503906 101.953125 C 255.25 103.589844 253.796875 104.933594 252.203125 105.875 C 249.914062 107.230469 247.152344 107.945312 244.226562 107.945312 C 242.238281 107.945312 240.28125 107.601562 238.441406 107.011719 C 238.382812 106.992188 238.324219 106.980469 238.265625 106.960938 C 237.628906 106.746094 237.007812 106.503906 236.402344 106.226562 C 236.234375 106.152344 236.058594 106.089844 235.894531 106.007812 C 235.230469 105.683594 234.59375 105.324219 233.988281 104.925781 C 233.933594 104.890625 233.882812 104.851562 233.828125 104.816406 C 232.871094 104.171875 232.011719 103.429688 231.238281 102.625 C 231.304688 103.613281 231.140625 106.882812 231.085938 107.328125 C 231.019531 107.882812 230.929688 108.441406 230.828125 109 C 230.804688 109.140625 230.792969 109.273438 230.765625 109.410156 C 230.652344 109.984375 230.503906 110.539062 230.355469 111.09375 C 230.203125 111.695312 230.027344 112.28125 229.832031 112.859375 C 228.164062 117.890625 225.226562 121.992188 221.585938 124.140625 C 219.136719 125.585938 216.1875 126.351562 213.058594 126.351562 C 209.5625 126.351562 206.164062 125.410156 203.273438 123.804688 C 201.179688 122.640625 199.375 121.117188 198.007812 119.316406 C 197.800781 119.042969 197.570312 118.789062 197.386719 118.503906 C 197.328125 118.414062 197.285156 118.316406 197.226562 118.226562 L 193.382812 119.28125 C 193.203125 119.265625 193.019531 119.269531 192.835938 119.253906 C 191.679688 119.148438 190.511719 118.980469 189.339844 118.789062 C 188.183594 118.601562 187.019531 118.382812 185.84375 118.144531 C 184.808594 117.933594 183.761719 117.710938 182.707031 117.484375 C 175.734375 115.941406 168.445312 114.933594 161.230469 114.746094 C 160.707031 114.730469 160.183594 114.746094 159.65625 114.734375 C 154.230469 116.648438 148.574219 118.605469 142.921875 120.535156 C 148.945312 119.9375 155 119.75 161.023438 120.027344 C 164.476562 120.191406 167.921875 120.507812 171.34375 120.96875 C 172.257812 121.089844 173.171875 121.226562 174.078125 121.375 C 175.253906 121.570312 176.425781 121.785156 177.597656 122.011719 C 178.71875 122.230469 179.847656 122.457031 180.988281 122.6875 L 175.597656 124.167969 C 173.867188 124.078125 172.136719 124.023438 170.402344 123.988281 C 168.503906 123.953125 166.597656 123.9375 164.695312 123.953125 C 162.699219 123.964844 160.707031 124.003906 158.707031 124.070312 C 151.484375 124.386719 144.269531 125.089844 137.109375 126.171875 C 137.03125 126.1875 136.945312 126.195312 136.863281 126.207031 C 136.25 126.304688 135.636719 126.417969 135.019531 126.523438 C 134.371094 126.628906 133.726562 126.738281 133.082031 126.851562 C 132.535156 126.949219 131.984375 127.03125 131.441406 127.132812 C 118.835938 129.457031 106.445312 132.984375 94.546875 137.757812 C 91.175781 139.125 87.929688 140.445312 84.695312 141.15625 C 83.078125 141.496094 81.46875 141.6875 79.902344 141.597656 C 78.351562 141.519531 76.945312 141.164062 75.554688 140.480469 C 72.828125 139.171875 70.527344 136.640625 70.375 133.917969 C 70.328125 133.484375 70.292969 133.03125 70.441406 132.621094 C 71.371094 129.988281 72.683594 130.386719 72.769531 130.238281 L 69.445312 127.9375 L 74.785156 126.578125 L 105.40625 118.796875 C 116.699219 114.09375 127.894531 109.046875 138.84375 103.570312 C 144.335938 100.832031 149.761719 97.953125 155.039062 94.84375 C 160.304688 91.71875 165.503906 88.445312 170.027344 84.359375 C 179.125 76.105469 187.9375 67.507812 196.753906 58.925781 C 198.0625 57.648438 199.355469 56.347656 200.660156 55.066406 C 201.042969 54.691406 201.421875 54.316406 201.800781 53.941406 C 202.1875 53.5625 202.570312 53.175781 202.957031 52.796875 C 204.5 51.277344 206.035156 49.75 207.578125 48.230469 C 207.828125 47.984375 208.078125 47.738281 208.328125 47.488281 C 208.566406 47.253906 208.808594 47.015625 209.046875 46.777344 C 209.527344 46.304688 210.003906 45.832031 210.484375 45.359375 C 211.996094 43.863281 213.511719 42.371094 215.019531 40.871094 C 216.65625 39.25 218.308594 37.640625 219.941406 36.011719 C 217.128906 33.289062 215.496094 32.976562 215.496094 32.976562 C 215.496094 32.976562 213.390625 35.058594 209.851562 38.449219 C 208.605469 39.636719 207.207031 40.96875 205.628906 42.453125 C 205.488281 42.589844 205.332031 42.734375 205.183594 42.871094 C 205.101562 42.953125 205.011719 43.035156 204.925781 43.117188 C 204.679688 43.347656 204.429688 43.585938 204.175781 43.820312 C 203.554688 44.40625 202.910156 45.003906 202.25 45.621094 C 199.164062 48.496094 195.671875 51.695312 191.910156 55.078125 C 191.578125 55.375 191.253906 55.667969 190.917969 55.964844 C 190.589844 56.261719 190.253906 56.558594 189.925781 56.851562 C 189.640625 57.105469 189.351562 57.359375 189.0625 57.617188 C 174.515625 70.535156 156.707031 85.222656 143.074219 92.90625 C 142.078125 93.46875 141.101562 94 140.160156 94.480469 L 140.15625 94.480469 C 128.023438 100.664062 116.421875 106.011719 106.535156 110.347656 C 100.164062 113.144531 94.511719 115.515625 89.890625 117.429688 C 85.582031 119.207031 82.164062 120.585938 79.917969 121.519531 C 74.738281 123.667969 70.09375 125.023438 67.292969 125.746094 C 66.75 125.882812 66.28125 126 65.886719 126.09375 C 65.796875 126.117188 65.722656 126.132812 65.640625 126.152344 C 65.632812 125.882812 65.609375 125.609375 65.5625 125.332031 C 68.261719 122.519531 71.488281 119.160156 71.558594 119.085938 L 71.539062 119.074219 C 73.378906 117.152344 75.203125 115.246094 76.964844 113.414062 C 77.578125 112.773438 78.183594 112.140625 78.78125 111.515625 C 84.640625 105.414062 89.667969 100.1875 92.570312 97.167969 C 92.824219 97.3125 93.105469 97.40625 93.394531 97.421875 C 93.925781 97.441406 94.4375 97.242188 94.898438 96.980469 C 92.734375 99.226562 88.417969 103.714844 83.070312 109.28125 C 81.496094 110.925781 79.839844 112.648438 78.121094 114.4375 C 78.054688 114.511719 81.960938 117.335938 82.535156 117.101562 C 87.246094 115.179688 94.226562 112.324219 102.621094 108.675781 L 102.195312 108.496094 C 100.851562 107.675781 99.6875 106.636719 98.710938 105.457031 C 104.765625 103.15625 114.613281 99.320312 123.9375 95.253906 C 124.789062 96.238281 125.855469 97.011719 127.054688 97.515625 C 130.875 95.675781 134.78125 93.75 138.753906 91.726562 C 140.136719 91.019531 141.585938 90.207031 143.074219 89.332031 L 143.074219 85.804688 C 150.167969 81.734375 160.679688 75.320312 171.453125 68.632812 C 176.035156 64.855469 180.554688 60.976562 184.839844 57.203125 C 185.144531 56.933594 185.457031 56.664062 185.757812 56.398438 C 186.070312 56.125 186.371094 55.855469 186.679688 55.582031 C 186.832031 55.445312 186.980469 55.3125 187.132812 55.175781 C 188.949219 53.5625 190.714844 51.980469 192.414062 50.4375 C 191.269531 50.867188 190.109375 51.238281 188.941406 51.574219 C 187.796875 51.871094 186.664062 52.226562 185.480469 52.375 C 184.792969 52.476562 184.09375 52.542969 183.378906 52.542969 C 182.875 52.542969 182.363281 52.511719 181.839844 52.425781 C 182.867188 51.65625 183.964844 51.175781 185.085938 50.773438 C 186.203125 50.355469 187.367188 50.144531 188.519531 49.875 C 190.289062 49.511719 192.074219 49.214844 193.902344 49.089844 C 195.832031 47.335938 197.65625 45.652344 199.371094 44.0625 C 192.542969 45 183.679688 48.15625 179.699219 50.800781 C 179.039062 51.238281 178.640625 51.613281 178.417969 51.984375 L 171.585938 53.472656 C 170.648438 52.566406 169.316406 51.84375 167.832031 51.683594 C 167.625 51.613281 167.410156 51.5625 167.175781 51.554688 C 166.992188 51.546875 162.582031 51.460938 156.597656 52.796875 C 153.261719 53.542969 142.347656 57.335938 138.203125 58.792969 C 140.136719 56.675781 140.722656 53.015625 140.882812 50.457031 C 143.546875 50.019531 145.78125 49.5625 145.78125 49.5625 L 145.78125 48.269531 L 142.945312 46.597656 C 142.945312 46.597656 143.074219 45.953125 141.144531 42.34375 C 139.210938 38.734375 134.441406 36.800781 130.445312 37.960938 C 126.179688 39.199219 124.773438 41.183594 123.875 44.535156 C 122.96875 47.886719 123.222656 52.523438 123.867188 56.261719 C 124.152344 57.890625 124.96875 58.78125 125.910156 59.195312 L 108.277344 58.234375 L 108.042969 58.265625 C 106.132812 58.558594 104.570312 59.800781 103.863281 61.597656 C 103.15625 63.390625 103.445312 65.371094 104.636719 66.882812 L 105.246094 67.65625 L 118.804688 69.03125 C 118.886719 69.042969 118.964844 69.046875 119.042969 69.046875 C 119.117188 69.046875 119.191406 69.03125 119.265625 69.019531 C 119.296875 69.03125 119.324219 69.050781 119.359375 69.058594 C 119.585938 69.125 119.832031 69.117188 120.070312 69.109375 C 120.558594 69.09375 121.042969 69.078125 121.53125 69.058594 C 121.714844 69.054688 121.902344 69.046875 122.085938 69.03125 L 121.941406 69.0625 L 121.941406 89.875 C 121.941406 90.824219 122.113281 91.71875 122.394531 92.550781 C 112.894531 96.6875 102.875 100.574219 96.980469 102.804688 C 96.167969 101.1875 95.648438 99.414062 95.515625 97.554688 L 95.445312 96.605469 C 96.28125 95.980469 96.945312 95.132812 97.230469 94.132812 C 97.320312 93.820312 97.347656 93.496094 97.335938 93.171875 C 100.335938 89.902344 103.503906 85.582031 102.613281 82.667969 C 102.238281 81.4375 101.242188 80.550781 99.882812 80.242188 C 96.851562 79.550781 93.285156 80.863281 90.894531 82.039062 C 92.402344 79.875 92.886719 76.683594 93.03125 74.378906 C 95.703125 73.941406 97.929688 73.480469 97.929688 73.480469 L 97.929688 72.195312 L 95.097656 70.519531 C 95.097656 70.519531 95.226562 69.871094 93.292969 66.265625 C 91.359375 62.65625 86.59375 60.722656 82.597656 61.882812 C 78.328125 63.121094 76.925781 65.105469 76.023438 68.457031 C 75.121094 71.804688 75.378906 76.445312 76.023438 80.183594 C 76.425781 82.535156 77.949219 83.347656 79.351562 83.40625 C 76.851562 83.988281 71.902344 85.898438 67.921875 92.183594 C 62.640625 100.519531 61.304688 106.023438 60.464844 110.523438 C 59.695312 114.644531 59.875 120.046875 60.117188 123.578125 C 59.6875 124.671875 59.582031 125.816406 59.90625 126.765625 C 57.578125 129.203125 55.535156 131.332031 54.917969 131.980469 C 53.597656 133.371094 52.246094 134.789062 50.832031 136.277344 C 50.832031 136.277344 50.828125 136.273438 50.824219 136.273438 C 50.753906 136.253906 50.679688 136.246094 50.589844 136.246094 C 50.21875 136.246094 49.675781 136.433594 49.007812 136.769531 C 43.742188 139.390625 30.59375 151.277344 30.265625 155.253906 C 30.195312 156.117188 32.070312 159.125 33.628906 159.9375 C 33.878906 160.066406 34.117188 160.144531 34.34375 160.144531 C 34.425781 160.144531 34.507812 160.136719 34.589844 160.113281 C 35.308594 159.914062 36.101562 159.539062 36.9375 159.027344 C 41.003906 156.542969 46.128906 150.777344 49.613281 145.675781 C 51.097656 143.5 52.289062 141.441406 52.964844 139.8125 C 53.269531 139.074219 53.390625 138.535156 53.367188 138.101562 C 53.964844 137.476562 54.574219 136.832031 55.1875 136.1875 C 57.347656 133.917969 59.617188 131.535156 61.941406 129.101562 C 61.953125 129.089844 62.089844 128.949219 62.285156 128.746094 C 63.375 128.96875 64.679688 128.707031 65.308594 127.675781 C 65.445312 127.445312 65.523438 127.195312 65.578125 126.933594 C 65.703125 126.996094 65.816406 127.054688 65.96875 127.128906 C 66.625 127.453125 67.488281 127.871094 68.484375 128.335938 C 68.171875 128.75 67.894531 129.1875 67.65625 129.660156 C 67.421875 130.121094 67.21875 130.597656 67.0625 131.097656 C 66.761719 132.050781 66.585938 133.046875 66.609375 134.050781 C 66.609375 136.34375 67.546875 138.480469 68.800781 140.203125 C 70.078125 141.933594 71.734375 143.277344 73.5625 144.300781 C 75.367188 145.324219 77.535156 145.921875 79.59375 146.082031 C 81.449219 146.25 83.285156 146.101562 85.058594 145.816406 C 85.234375 145.789062 85.417969 145.765625 85.597656 145.738281 C 87.910156 145.308594 90.078125 144.617188 92.167969 143.863281 C 93.585938 143.355469 94.976562 142.820312 96.328125 142.3125 C 109.703125 137.238281 123.539062 133.410156 137.648438 131.007812 C 138.734375 130.816406 139.828125 130.652344 140.917969 130.480469 C 144.644531 129.890625 148.382812 129.398438 152.136719 129.003906 C 154.949219 128.710938 157.769531 128.46875 160.59375 128.285156 L 56.648438 156.824219 L 50.570312 158.492188 L 17.105469 167.683594 L 45.023438 192.289062 L 33.621094 227.824219 L 58.136719 221.09375 L 64.042969 219.472656 L 85.527344 213.574219 C 89.199219 211.582031 93.101562 210.082031 97.1875 209.160156 C 97.835938 209.011719 98.300781 208.789062 98.550781 208.621094 C 98.484375 208.589844 98.40625 208.554688 98.3125 208.527344 C 97.945312 208.414062 97.082031 208.382812 96.316406 208.355469 C 94.214844 208.277344 91.601562 208.179688 90.210938 206.539062 C 89.738281 205.980469 89.214844 205 89.410156 203.484375 C 89.84375 200.097656 94.515625 198.273438 96.894531 198.246094 L 97.023438 198.246094 C 98.703125 198.246094 100.351562 198.640625 101.941406 199.027344 C 102.929688 199.261719 103.863281 199.484375 104.757812 199.605469 C 105.277344 199.679688 105.800781 199.742188 106.332031 199.804688 C 109.65625 200.207031 113.421875 200.664062 116.460938 202.886719 C 116.589844 202.980469 116.699219 203.089844 116.820312 203.191406 C 118.605469 200.125 124.722656 199.496094 126.269531 199.496094 L 126.328125 199.496094 C 128.449219 199.511719 130.464844 200.136719 132.277344 200.738281 L 225.4375 175.160156 L 231.796875 173.414062 L 282.882812 159.386719 L 255.992188 137.003906 " fill-opacity="1" fill-rule="nonzero"/></g><path fill="#000000" d="M 66.484375 175.609375 L 64.691406 176.085938 L 66.308594 182.183594 L 67.925781 181.757812 C 70.007812 181.203125 71.101562 179.835938 70.597656 177.9375 C 70.035156 175.820312 68.566406 175.058594 66.484375 175.609375 " fill-opacity="1" fill-rule="nonzero"/><path fill="#000000" d="M 213.863281 54.796875 C 214.359375 55.464844 214.988281 56.007812 215.585938 56.277344 C 216.027344 56.476562 216.40625 56.511719 216.601562 56.363281 C 216.792969 56.21875 216.871094 55.847656 216.808594 55.367188 C 216.722656 54.71875 216.386719 53.964844 215.882812 53.289062 C 215.035156 52.152344 214.050781 51.628906 213.480469 51.628906 C 213.339844 51.628906 213.226562 51.664062 213.144531 51.722656 C 212.953125 51.867188 212.875 52.242188 212.9375 52.71875 C 213.023438 53.367188 213.363281 54.125 213.863281 54.796875 " fill-opacity="1" fill-rule="nonzero"/><path fill="#000000" d="M 147.449219 115.242188 C 147.074219 115.511719 146.703125 115.796875 146.332031 116.078125 C 147.320312 115.742188 148.304688 115.402344 149.289062 115.066406 C 169.015625 108.273438 187.605469 101.492188 194.867188 98.167969 C 195.734375 97.769531 196.617188 97.320312 197.507812 96.835938 C 187.199219 97.75 169.992188 104.085938 161.777344 107.558594 C 157.042969 109.5625 152 111.964844 147.449219 115.242188 " fill-opacity="1" fill-rule="nonzero"/><path fill="#000000" d="M 217.761719 81.804688 C 215.78125 82.414062 204.984375 86.070312 203.070312 86.734375 C 205.179688 86.757812 211.335938 86.828125 211.335938 86.828125 C 211.335938 86.828125 216.199219 83.167969 217.761719 81.804688 " fill-opacity="1" fill-rule="nonzero"/><path fill="#000000" d="M 212.222656 50.480469 C 213.503906 49.527344 215.613281 50.335938 217.125 52.367188 C 217.789062 53.257812 218.21875 54.246094 218.339844 55.164062 C 218.484375 56.238281 218.195312 57.105469 217.523438 57.605469 C 217.167969 57.871094 216.746094 58.003906 216.277344 58.003906 C 215.863281 58.003906 215.414062 57.898438 214.949219 57.6875 C 214.109375 57.308594 213.285156 56.609375 212.621094 55.71875 C 211.957031 54.828125 211.527344 53.835938 211.40625 52.925781 C 211.261719 51.847656 211.550781 50.980469 212.222656 50.480469 Z M 222.894531 51.183594 L 220.773438 46.25 L 223.636719 51.53125 L 228.886719 61.207031 L 229.144531 61.6875 L 228.769531 62.058594 L 220.773438 69.96875 L 227.300781 61.4375 Z M 115.84375 123.144531 C 116.875 122.808594 117.894531 122.4375 118.914062 122.078125 C 119.757812 121.746094 120.617188 121.453125 121.464844 121.144531 C 122.605469 120.710938 123.746094 120.277344 124.867188 119.808594 C 125.613281 119.523438 126.300781 119.144531 127.019531 118.816406 L 128.089844 118.304688 L 129.074219 117.710938 C 130.363281 117 131.789062 115.882812 133.175781 115.117188 C 134.667969 114.222656 136.167969 113.355469 137.675781 112.5 C 145.363281 103.363281 160.09375 95.683594 176.171875 91 C 178.667969 89.441406 181.128906 87.835938 183.511719 86.128906 C 186.101562 84.210938 188.488281 82.226562 190.753906 79.875 L 197.660156 73.074219 C 202.300781 68.582031 206.960938 64.105469 211.753906 59.742188 C 207.441406 64.5625 203 69.265625 198.542969 73.957031 L 191.792969 80.929688 C 190.980469 81.835938 190.085938 82.695312 189.167969 83.53125 C 200.230469 77.4375 214.691406 72.855469 228.515625 71.125 C 229.796875 69.800781 230.929688 68.601562 231.898438 67.5625 C 234.140625 65.160156 235.464844 63.644531 235.464844 63.644531 C 235.464844 63.644531 233.097656 55.785156 228 46.964844 C 227.390625 45.910156 226.75 44.84375 226.0625 43.773438 C 223.691406 40.09375 221.644531 37.667969 219.992188 36.0625 C 218.402344 37.699219 216.792969 39.324219 215.203125 40.957031 C 213.726562 42.472656 212.242188 43.980469 210.765625 45.492188 C 210.203125 46.066406 209.640625 46.640625 209.082031 47.214844 C 208.835938 47.464844 208.589844 47.714844 208.34375 47.96875 C 208.082031 48.234375 207.824219 48.5 207.5625 48.765625 C 206.355469 49.996094 205.15625 51.230469 203.949219 52.457031 C 203.554688 52.855469 203.167969 53.257812 202.777344 53.65625 C 202.398438 54.039062 202.027344 54.421875 201.652344 54.804688 C 200.160156 56.320312 198.6875 57.855469 197.1875 59.363281 C 188.511719 68.097656 179.851562 76.835938 170.859375 85.273438 C 166.304688 89.523438 161.082031 92.929688 155.835938 96.167969 C 150.5625 99.394531 145.160156 102.375 139.6875 105.21875 C 128.746094 110.925781 117.601562 116.171875 106.28125 121.113281 L 106.214844 121.140625 L 106.117188 121.167969 L 72.769531 130.238281 C 75.203125 131.261719 77.902344 132.292969 80.472656 133.0625 C 92.371094 130.132812 104.230469 126.945312 115.84375 123.144531 " fill-opacity="1" fill-rule="nonzero"/><path fill="#000000" d="M 130.054688 119.296875 L 128.964844 119.953125 L 127.84375 120.488281 C 127.09375 120.828125 126.359375 121.230469 125.597656 121.519531 C 123.574219 122.371094 121.523438 123.125 119.464844 123.851562 C 118.457031 124.207031 117.445312 124.570312 116.429688 124.902344 C 105.660156 128.425781 94.71875 131.246094 83.734375 133.886719 C 84.992188 134.140625 86.171875 134.292969 87.207031 134.292969 C 87.386719 134.292969 87.554688 134.285156 87.726562 134.277344 C 90.472656 134.136719 103.570312 130.210938 119.84375 124.925781 C 124.042969 123.5625 128.453125 122.109375 132.949219 120.605469 C 133.3125 119.496094 133.800781 118.398438 134.375 117.316406 C 134.570312 116.949219 134.78125 116.585938 135 116.222656 C 134.71875 116.386719 134.429688 116.546875 134.148438 116.714844 C 133.523438 117.066406 132.957031 117.4375 132.390625 117.816406 C 131.65625 118.304688 130.921875 118.808594 130.054688 119.296875 " fill-opacity="1" fill-rule="nonzero"/><path fill="#000000" d="M 231.65625 73.871094 C 231.105469 73.921875 230.546875 74 229.992188 74.058594 C 229.175781 74.15625 228.363281 74.238281 227.542969 74.351562 C 226.675781 74.472656 225.800781 74.617188 224.929688 74.757812 C 211.214844 76.988281 197.203125 81.929688 187.109375 88.304688 C 191.0625 87.519531 195.015625 86.925781 198.890625 86.546875 C 204.519531 84.296875 212.613281 81.367188 220.050781 79.472656 C 221.074219 79.214844 222.089844 78.96875 223.078125 78.753906 C 224.027344 78.542969 224.964844 78.355469 225.867188 78.195312 C 227.917969 77.835938 229.816406 77.625 231.507812 77.585938 C 231.6875 77.582031 231.882812 77.5625 232.058594 77.5625 C 232.589844 77.5625 233.097656 77.582031 233.578125 77.625 C 235.09375 77.757812 236.4375 78.058594 237.679688 78.449219 C 248.386719 81.808594 249.089844 93.652344 242.078125 94.878906 C 244.222656 92.425781 243.007812 88.0625 240.050781 86.691406 C 239.175781 86.285156 238.292969 86.097656 237.441406 86.097656 C 237.410156 86.097656 237.386719 86.105469 237.359375 86.105469 C 234.375 86.148438 231.757812 88.464844 230.894531 91.597656 C 230.582031 92.742188 230.496094 93.992188 230.722656 95.28125 C 230.933594 96.480469 231.394531 97.710938 232.179688 98.917969 C 233.238281 100.535156 234.785156 101.851562 236.574219 102.847656 C 236.875 103.011719 237.164062 103.183594 237.476562 103.328125 C 237.78125 103.472656 238.09375 103.589844 238.40625 103.714844 C 239.320312 104.074219 240.265625 104.351562 241.238281 104.539062 C 242.046875 104.699219 242.859375 104.792969 243.675781 104.820312 C 243.859375 104.824219 244.042969 104.851562 244.226562 104.851562 C 245.183594 104.851562 246.128906 104.738281 247.050781 104.550781 L 248.550781 104.136719 C 249.273438 103.890625 249.976562 103.601562 250.628906 103.214844 C 251.234375 102.859375 251.796875 102.40625 252.335938 101.917969 C 252.558594 101.71875 252.78125 101.53125 252.988281 101.3125 C 253.578125 100.703125 254.109375 100.003906 254.609375 99.265625 C 254.777344 99.015625 254.949219 98.773438 255.105469 98.511719 C 258.625 92.652344 259.4375 83.847656 255.757812 78.980469 C 252.257812 74.359375 245.753906 73.449219 239.9375 73.449219 C 239.859375 73.449219 239.78125 73.449219 239.707031 73.449219 C 239.105469 73.453125 238.488281 73.484375 237.875 73.5 C 235.835938 73.554688 233.761719 73.667969 231.65625 73.871094 " fill-opacity="1" fill-rule="nonzero"/><path fill="#000000" d="M 208.519531 103.53125 C 207.570312 103.089844 206.613281 102.886719 205.691406 102.886719 C 200.75 102.886719 196.675781 108.636719 198.855469 114.574219 C 199.03125 115.046875 199.253906 115.523438 199.511719 115.996094 C 199.660156 116.269531 199.800781 116.539062 199.976562 116.8125 C 200.101562 117.003906 200.261719 117.171875 200.398438 117.359375 C 200.789062 117.886719 201.234375 118.386719 201.71875 118.851562 C 203.417969 120.492188 205.609375 121.726562 208 122.464844 C 209.636719 122.96875 211.351562 123.257812 213.058594 123.257812 C 215.527344 123.257812 217.949219 122.695312 220.011719 121.480469 C 222.761719 119.851562 224.957031 116.835938 226.378906 113.324219 C 226.824219 112.230469 227.183594 111.089844 227.46875 109.925781 C 227.605469 109.363281 227.722656 108.796875 227.820312 108.226562 C 227.855469 108.023438 227.898438 107.824219 227.925781 107.621094 C 227.980469 107.265625 228.015625 106.914062 228.050781 106.558594 C 228.484375 102.292969 227.785156 98.074219 225.578125 95.160156 C 222.78125 91.464844 218.21875 89.957031 213.488281 89.417969 C 212.753906 89.335938 212.015625 89.273438 211.277344 89.234375 C 210.46875 89.1875 209.667969 89.160156 208.875 89.15625 C 208.714844 89.152344 208.554688 89.152344 208.398438 89.152344 C 208.316406 89.152344 208.230469 89.152344 208.148438 89.152344 C 205.378906 89.160156 202.535156 89.308594 199.644531 89.582031 C 197.8125 89.753906 195.96875 89.980469 194.109375 90.25 C 192.308594 90.507812 190.503906 90.816406 188.691406 91.167969 C 186.054688 91.671875 183.421875 92.265625 180.8125 92.941406 C 180.195312 93.101562 179.582031 93.257812 178.96875 93.429688 C 178.4375 93.574219 177.90625 93.730469 177.378906 93.882812 C 175.464844 94.4375 173.578125 95.03125 171.714844 95.664062 C 170.484375 96.398438 169.25 97.128906 168.007812 97.851562 C 162.402344 101.101562 156.726562 104.207031 151.050781 107.304688 C 148.097656 108.933594 145.121094 110.527344 142.171875 112.148438 C 140.734375 113.570312 139.480469 115.019531 138.457031 116.5 C 137.816406 117.425781 137.277344 118.363281 136.816406 119.3125 C 136.511719 119.9375 136.238281 120.566406 136.015625 121.203125 C 135.992188 121.273438 135.960938 121.34375 135.941406 121.414062 C 135.761719 121.949219 135.609375 122.488281 135.488281 123.027344 C 135.886719 122.4375 136.296875 121.863281 136.71875 121.304688 C 136.839844 121.144531 136.964844 120.996094 137.085938 120.839844 C 137.699219 120.058594 138.335938 119.300781 139 118.574219 C 139.835938 117.660156 140.710938 116.796875 141.621094 115.972656 C 147.046875 111.058594 153.679688 107.628906 160.574219 104.710938 C 165.042969 102.820312 172.285156 100.015625 179.730469 97.699219 C 182.183594 96.9375 184.65625 96.234375 187.0625 95.628906 C 191.832031 94.425781 196.332031 93.617188 199.839844 93.617188 C 200.417969 93.617188 200.972656 93.640625 201.496094 93.6875 C 201.832031 93.71875 202.132812 93.789062 202.460938 93.832031 C 203.222656 93.929688 203.96875 94.046875 204.660156 94.210938 C 205.328125 94.367188 205.964844 94.546875 206.566406 94.761719 C 215.320312 97.84375 217.503906 106.289062 214.320312 110.328125 C 213.480469 111.390625 212.28125 112.152344 210.722656 112.425781 C 211.070312 112.027344 211.3125 111.574219 211.503906 111.101562 C 212.589844 108.40625 211.253906 104.796875 208.519531 103.53125 " fill-opacity="1" fill-rule="nonzero"/><path fill="#000000" d="M 189.914062 206.089844 C 188.664062 204.816406 187.285156 203.542969 186.308594 202.035156 C 185.574219 200.910156 185.292969 199.40625 184.121094 198.601562 C 180.3125 196.003906 171.605469 200.925781 168.140625 203.847656 C 166.832031 204.953125 165.667969 206.234375 164.214844 207.132812 C 162.007812 208.496094 159.1875 208.933594 157.425781 210.839844 C 156.101562 212.277344 155.921875 213.144531 153.738281 221.46875 C 160.230469 220.480469 166.640625 223.121094 171.816406 227.117188 C 173.472656 225.984375 175.777344 224.558594 176.96875 226.144531 C 179.949219 230.109375 173.6875 230.417969 176.84375 231.214844 C 177.636719 230.683594 178.390625 230.097656 179.097656 229.453125 C 182.417969 224.347656 185.480469 219.324219 190.617188 216.132812 C 192.285156 214.578125 194.199219 213.207031 196.449219 212.894531 C 194.207031 211.179688 190.914062 207.105469 189.914062 206.089844 " fill-opacity="1" fill-rule="nonzero"/><path fill="#000000" d="M 165.40625 284.980469 C 165.421875 284.96875 165.445312 284.914062 165.476562 284.847656 C 165.410156 284.929688 165.40625 284.96875 165.40625 284.980469 " fill-opacity="1" fill-rule="nonzero"/><path fill="#000000" d="M 207.367188 222.625 C 207.945312 219.117188 200.585938 214.363281 197.382812 214.363281 C 190.183594 214.363281 184.472656 229.289062 175.847656 233.589844 C 175.132812 233.945312 174.367188 234.265625 173.859375 234.882812 C 173.351562 235.496094 173.234375 236.523438 173.84375 237.035156 C 174.65625 237.710938 178.015625 237.460938 181.722656 239.175781 C 184.570312 240.496094 187.046875 242.796875 189.882812 243.953125 C 191.121094 243.972656 191.84375 243.945312 194.953125 244.167969 C 197.316406 242.597656 199.011719 231.65625 204.84375 226.042969 C 205.882812 225.042969 207.132812 224.050781 207.367188 222.625 " fill-opacity="1" fill-rule="nonzero"/><path fill="#000000" d="M 87.75 266.464844 C 90.269531 267.453125 92.863281 267.484375 95.609375 267.128906 C 99.351562 266.636719 106.414062 265.144531 110.261719 263.714844 C 110.996094 263.433594 110.003906 261.5 111.511719 259.269531 C 113.011719 257.050781 115.316406 256.984375 114.640625 255.039062 C 113.710938 252.347656 114.074219 250.558594 113.105469 249.910156 C 112.855469 249.738281 106.78125 247.886719 103.929688 247.492188 C 96.308594 246.433594 93.390625 250.53125 93.535156 258.386719 C 93.664062 265.441406 90.746094 264.523438 87.75 266.464844 " fill-opacity="1" fill-rule="nonzero"/><path fill="#000000" d="M 116.640625 265.558594 C 117.96875 263.679688 118.105469 263.839844 117.675781 263.171875 C 117.785156 262.078125 120.691406 260.378906 121.445312 258.550781 C 122.394531 256.34375 122.003906 253.773438 120.441406 252.097656 C 119.027344 250.558594 116.535156 250.304688 116.558594 248.542969 C 115.632812 250.183594 118.355469 251.996094 118.914062 253.21875 C 121.644531 258.765625 111.609375 258.371094 113.566406 264.75 C 113.675781 265.132812 113.75 265.371094 113.753906 265.445312 C 113.605469 265.75 111.773438 266.742188 106.195312 268.152344 C 97.875 270.257812 88.535156 272.542969 82.429688 266.683594 C 83.484375 269.550781 86.574219 272.5 91.613281 273.664062 C 96.519531 273.234375 99.332031 273.0625 103.699219 272.320312 C 113.160156 270.703125 114.410156 268.722656 116.640625 265.558594 " fill-opacity="1" fill-rule="nonzero"/><path fill="#000000" d="M 188.78125 259.480469 C 188.617188 259.394531 188.476562 259.320312 188.320312 259.238281 C 187.722656 258.917969 187.15625 258.621094 186.691406 258.316406 C 186.101562 257.925781 185.761719 257.515625 185.46875 257.0625 C 184.867188 256.101562 184.484375 254.433594 183.617188 252.628906 C 183.175781 251.734375 182.542969 250.785156 181.65625 250.101562 C 180.769531 249.417969 179.820312 249.117188 178.988281 248.824219 C 177.34375 248.277344 175.777344 247.601562 174.226562 246.839844 C 171.136719 245.304688 168.253906 243.304688 165.703125 240.925781 C 168.105469 243.453125 170.804688 245.714844 173.746094 247.671875 C 175.214844 248.648438 176.773438 249.519531 178.339844 250.324219 C 179.101562 250.71875 179.765625 251.167969 180.144531 251.6875 C 180.515625 252.230469 180.714844 252.859375 180.84375 253.605469 C 181.125 255.078125 181.097656 256.988281 182.355469 259.03125 C 182.980469 260.066406 184 260.824219 184.90625 261.3125 C 184.96875 261.347656 185.027344 261.367188 185.089844 261.398438 C 185.945312 261.84375 186.773438 262.144531 187.539062 262.390625 C 188.988281 262.828125 190.355469 263.460938 191.664062 264.253906 C 193.152344 265.15625 194.5625 266.277344 195.890625 267.660156 C 195.457031 265.988281 194.574219 264.414062 193.410156 263.046875 C 192.144531 261.5625 190.542969 260.320312 188.78125 259.480469 " fill-opacity="1" fill-rule="nonzero"/><path fill="#000000" d="M 132.359375 244.660156 C 127.417969 246.75 124.269531 253.109375 125.9375 258.914062 C 126.675781 261.601562 127.917969 263.992188 126.878906 266.074219 C 126.421875 267.144531 125.390625 268.394531 125.355469 269.996094 C 125.308594 271.511719 126.050781 272.972656 127.21875 273.707031 C 126.386719 272.621094 126.117188 271.273438 126.382812 270.117188 C 126.847656 267.855469 129.933594 266.660156 128.917969 262.332031 C 128.285156 259.089844 126.191406 256.292969 127.9375 251.003906 C 128.738281 248.582031 130.230469 246.347656 132.359375 244.660156 " fill-opacity="1" fill-rule="nonzero"/><path fill="#000000" d="M 120.113281 266.023438 C 115.9375 271.683594 114.976562 274.761719 94.886719 276.488281 C 101.230469 277.914062 112.195312 277.542969 116.921875 273.03125 C 118.902344 271.207031 119.761719 268.6875 120.113281 266.023438 " fill-opacity="1" fill-rule="nonzero"/><path fill="#000000" d="M 196.855469 245.425781 C 196.628906 245.59375 196.433594 245.722656 196.277344 245.753906 C 196.179688 245.777344 196.105469 245.78125 196.007812 245.78125 C 195.949219 245.78125 195.875 245.78125 195.78125 245.777344 L 195.316406 245.746094 L 193.75 245.632812 L 191.585938 245.527344 C 190.914062 245.503906 190.242188 245.503906 189.5625 245.496094 C 189.121094 245.488281 188.683594 245.472656 188.25 245.472656 C 187.925781 245.472656 187.601562 245.476562 187.28125 245.476562 C 187.210938 245.480469 187.144531 245.480469 187.074219 245.480469 C 186.496094 245.480469 186.007812 245.433594 185.652344 245.351562 C 185.242188 245.246094 185.074219 245.148438 184.699219 244.789062 C 184.347656 244.433594 183.960938 243.851562 183.425781 243.203125 C 182.910156 242.535156 182.09375 241.855469 181.351562 241.46875 C 179.800781 240.664062 178.433594 240.421875 177.03125 239.992188 C 175.613281 239.636719 174.195312 239.277344 172.714844 239.0625 C 173.867188 240.011719 175.085938 240.820312 176.304688 241.628906 C 177.511719 242.414062 178.882812 243.148438 179.773438 243.886719 C 180.242188 244.273438 180.492188 244.601562 180.808594 245.117188 C 181.046875 245.511719 181.300781 246 181.664062 246.542969 C 181.777344 246.707031 181.898438 246.878906 182.035156 247.054688 C 182.574219 247.808594 183.632812 248.578125 184.621094 248.851562 C 184.699219 248.878906 184.765625 248.886719 184.839844 248.910156 C 185.742188 249.15625 186.5625 249.175781 187.273438 249.191406 C 188.753906 249.1875 190.167969 249.148438 191.613281 249.078125 L 193.773438 248.941406 C 194.539062 248.875 195.109375 248.851562 196.0625 248.71875 C 196.535156 248.65625 197.152344 248.457031 197.625 248.132812 C 198.097656 247.8125 198.441406 247.441406 198.695312 247.082031 C 199.195312 246.359375 199.46875 245.714844 199.804688 245.230469 C 200.445312 244.210938 201.605469 243.40625 203.054688 243.0625 C 202.613281 242.90625 202.136719 242.832031 201.652344 242.832031 C 200.570312 242.832031 199.433594 243.210938 198.480469 243.929688 C 197.804688 244.480469 197.320312 245.074219 196.855469 245.425781 " fill-opacity="1" fill-rule="nonzero"/><path fill="#000000" d="M 143.03125 252.199219 L 142.28125 252.722656 C 140.574219 265.15625 151.007812 274.855469 162.792969 279.039062 C 164.878906 273.140625 164.132812 275.253906 166.191406 269.429688 C 164.585938 268.605469 151.8125 261.945312 146.449219 256.996094 C 144.894531 255.5625 143.800781 253.894531 143.03125 252.199219 " fill-opacity="1" fill-rule="nonzero"/><path fill="#000000" d="M 163.199219 249.8125 C 163.023438 251.300781 162.808594 250.804688 164.03125 251.65625 C 163.789062 251.003906 163.511719 250.390625 163.199219 249.8125 " fill-opacity="1" fill-rule="nonzero"/><path fill="#000000" d="M 147.597656 255.75 C 153.09375 260.828125 167.136719 268.015625 167.136719 268.015625 C 166.710938 264.617188 165.972656 259.492188 165.226562 255.96875 C 165.070312 255.8125 165.957031 256.476562 162.640625 254.164062 C 162.5625 254.722656 162.527344 254.964844 162.457031 255.46875 C 157.179688 257.246094 152.265625 255.441406 149.78125 251.335938 C 149.78125 250.191406 150.035156 248.308594 150.242188 247.175781 C 148.050781 248.703125 145.75 250.304688 144.449219 251.210938 C 145.144531 252.820312 146.140625 254.410156 147.597656 255.75 " fill-opacity="1" fill-rule="nonzero"/><path fill="#000000" d="M 146.066406 243.480469 C 145.3125 244.664062 144.699219 246.480469 144.308594 247.832031 C 145.824219 246.773438 146.496094 246.304688 148.925781 244.613281 C 146.050781 242.609375 146.566406 242.691406 146.066406 243.480469 " fill-opacity="1" fill-rule="nonzero"/><path fill="#000000" d="M 144.375 241.445312 C 142.707031 243.875 141.746094 247.164062 141.121094 250.050781 C 143.902344 248.109375 142.953125 249.140625 143.855469 246.425781 C 145.589844 241.210938 146.695312 243.0625 144.375 241.445312 " fill-opacity="1" fill-rule="nonzero"/><path fill="#000000" d="M 151.261719 231.011719 C 151.714844 232.417969 152.667969 233.535156 151.6875 234.910156 C 151.039062 235.8125 149.886719 235.878906 148.9375 235.355469 C 147.929688 234.800781 147.800781 234.265625 147.082031 232.84375 Z M 145.339844 233.601562 L 146.308594 233.179688 C 146.96875 234.496094 147.242188 235.332031 148.382812 236.019531 C 148.980469 236.375 149.042969 235.746094 146.917969 238.199219 C 149.757812 239.5 151.882812 239.941406 155.066406 239.539062 C 154.175781 238.503906 154.667969 236.921875 155.167969 235.664062 C 155.449219 234.957031 155.425781 235.648438 153.164062 234.988281 C 152.34375 234.78125 152.667969 235.441406 152.894531 234.113281 C 153.824219 234.753906 155.382812 233.980469 154.433594 231.542969 C 153.691406 229.640625 152.109375 225.128906 147.417969 226.84375 C 143.890625 228.128906 145.074219 231.914062 145.074219 231.914062 C 144.523438 233.121094 144.457031 232.679688 145.339844 233.601562 " fill-opacity="1" fill-rule="nonzero"/><path fill="#000000" d="M 136.308594 254.492188 C 140.902344 251.367188 137.992188 254.898438 134.261719 256.238281 C 134.882812 255.566406 135.582031 255.011719 136.308594 254.492188 Z M 131.773438 259.84375 C 133.261719 259.949219 137.449219 256.335938 138.574219 255.21875 C 140.570312 253.246094 139.640625 253.53125 140.25 253.105469 C 151.566406 245.222656 150.457031 246.113281 150.542969 245.738281 C 149.316406 244.886719 150.964844 244.226562 140.773438 251.320312 C 139.214844 252.410156 139.5625 252.21875 139.289062 252.21875 C 137.574219 252.21875 131.226562 255.699219 130.210938 257.957031 C 129.953125 258.527344 131.375 259.8125 131.773438 259.84375 " fill-opacity="1" fill-rule="nonzero"/><path fill="#000000" d="M 172.480469 229.679688 C 170.292969 232.125 166.90625 233.730469 169.285156 231.578125 C 169.761719 231.132812 171.128906 230.183594 172.398438 229.601562 C 172.796875 229.421875 172.753906 229.371094 172.480469 229.679688 Z M 176.929688 228.363281 C 177.039062 227.984375 176.34375 226.246094 175.722656 226.246094 C 173.46875 226.246094 167.351562 231.527344 167.136719 232.960938 C 165.3125 234.234375 165.941406 233.472656 166.074219 235.121094 C 168.378906 233.515625 167.757812 233.867188 168.144531 233.867188 C 169.699219 233.867188 176.484375 229.90625 176.929688 228.363281 " fill-opacity="1" fill-rule="nonzero"/><path fill="#000000" d="M 150.628906 251.101562 C 152.828125 254.734375 157.664062 256.191406 161.691406 254.835938 C 161.917969 253.21875 162.78125 254.265625 155.726562 249.347656 C 150.609375 245.785156 151.3125 246.164062 151.246094 246.480469 C 150.859375 248.234375 150.628906 250.492188 150.628906 251.101562 " fill-opacity="1" fill-rule="nonzero"/><path fill="#000000" d="M 160.746094 240.628906 C 159.847656 240.9375 159.070312 240.699219 158.574219 240.125 C 157.394531 238.765625 158.4375 237.429688 158.875 236.085938 C 163.703125 238.203125 163.15625 237.714844 162.789062 238.4375 C 162.289062 239.425781 162 240.195312 160.746094 240.628906 Z M 163.828125 238.257812 L 164.792969 238.679688 C 165.675781 237.757812 165.609375 238.1875 165.058594 236.988281 C 166.679688 231.730469 158.222656 227.804688 155.554688 237.070312 C 154.914062 239.300781 156.589844 239.660156 157.242188 239.207031 C 157.429688 240.269531 158.0625 239.917969 155.894531 240.273438 C 152.878906 240.769531 150.683594 240.476562 148.832031 239.863281 C 144.691406 238.492188 140.355469 235.164062 147.492188 240.136719 C 150.40625 242.167969 149.988281 241.949219 150.492188 242.03125 C 153.714844 242.558594 153.179688 241.527344 152.292969 243.300781 C 152.191406 243.496094 151.078125 242.632812 162.273438 250.429688 C 162.492188 248.664062 162.664062 247.445312 162.410156 244.933594 C 164.859375 247.847656 165.769531 249.328125 166.921875 253.664062 L 169.015625 255.125 C 166.859375 245.195312 163.3125 244.058594 161.402344 241.292969 C 162.820312 240.628906 163.117188 239.667969 163.828125 238.257812 " fill-opacity="1" fill-rule="nonzero"/><path fill="#000000" d="M 137.441406 234.53125 C 138.558594 234.996094 140.945312 236.347656 141.742188 237.695312 C 140.277344 237.347656 138.246094 235.488281 137.441406 234.53125 Z M 175.875 261.3125 C 174.730469 260.902344 172.253906 259.628906 171.417969 258.367188 C 172.898438 258.640625 175.03125 260.402344 175.875 261.3125 Z M 178.363281 264.917969 C 178.757812 264.890625 180.179688 263.601562 179.921875 263.03125 C 178.851562 260.640625 172.003906 257.035156 170.671875 257.304688 C 139.074219 235.300781 143.582031 238.648438 142.617188 237.296875 C 139.898438 233.480469 135.285156 231.519531 135.53125 231.617188 C 134.449219 231.191406 134 231.050781 133.398438 232.546875 C 133.046875 233.421875 133.152344 233.636719 133.871094 234.347656 C 134.457031 234.929688 140.039062 238.941406 141.992188 238.941406 C 142.652344 238.941406 169.917969 258.351562 170.132812 258.351562 C 169.949219 259.363281 176.628906 265.042969 178.363281 264.917969 " fill-opacity="1" fill-rule="nonzero"/><path fill="#000000" d="M 126.316406 201.042969 C 124.050781 201.027344 119.300781 201.976562 118.152344 203.976562 C 117.867188 204.472656 120.167969 206.390625 120.140625 209.785156 C 120.273438 210.046875 120.386719 210.304688 120.46875 210.550781 C 121.742188 214.402344 122.8125 212.875 124.878906 213.75 C 126.023438 214.230469 126.664062 215.496094 127.765625 216.066406 C 130.238281 213.859375 134.625 216.035156 133.523438 219.652344 C 133.921875 220.777344 134.121094 220.273438 132.546875 221.652344 C 132.035156 221.378906 132.171875 221.34375 131.925781 221.734375 C 131.296875 222.738281 130.992188 221.980469 131.792969 223.078125 C 134.980469 221.792969 139.097656 217.464844 140.523438 219.746094 C 140.808594 220.199219 141.097656 221.054688 140.90625 221.550781 C 140.699219 222.09375 140.363281 221.492188 141.757812 224.390625 C 141.949219 224.789062 142.175781 225.148438 142.613281 225.148438 C 142.902344 225.148438 148.710938 222.839844 149.214844 222.3125 C 150.003906 221.492188 149.460938 220.109375 148.703125 219.261719 C 145.699219 215.898438 135.53125 213.683594 137.054688 210.632812 C 137.410156 209.914062 138.390625 209.75 139.199219 209.75 C 141.667969 209.75 143.457031 210.996094 153.976562 216.457031 C 155.09375 209.226562 131.550781 201.074219 126.316406 201.042969 " fill-opacity="1" fill-rule="nonzero"/><path fill="#000000" d="M 99.675781 209.6875 C 97.96875 211.179688 94.132812 210.628906 86.109375 215.015625 C 85.027344 215.609375 83.328125 216.347656 83 217.472656 C 82.613281 218.800781 84.082031 219.269531 85.484375 219.371094 C 95.464844 220.097656 103.671875 226.515625 104.667969 228.953125 C 105.0625 229.921875 104.945312 231.011719 104.839844 232.046875 C 104.375 236.691406 104.347656 241.375 104.734375 246.027344 C 105.179688 246.105469 105.632812 246.195312 106.082031 246.296875 C 106.925781 245.710938 107.5625 244.746094 108.011719 243.789062 C 110.433594 238.628906 110.523438 240.191406 112.464844 238.503906 C 111.785156 238.921875 110.445312 239.703125 109.652344 239.632812 C 108.796875 239.539062 107.613281 238.09375 108.117188 237.195312 C 109.492188 234.71875 114.765625 233.675781 115.292969 233.371094 C 115.816406 231.664062 116.644531 229.25 117.785156 227.757812 C 121.277344 223.1875 120.859375 225.824219 120.097656 223.972656 C 119.925781 223.546875 120.054688 223.601562 119.503906 223.789062 C 118.214844 222.191406 118.347656 222.601562 118.683594 221.996094 C 119.546875 220.476562 116.75 220.820312 113.046875 217.4375 C 111.765625 216.265625 111.355469 215.492188 112.457031 214.148438 C 112.84375 213.679688 113.207031 213.582031 113.511719 213.589844 C 115.246094 213.714844 118.753906 217.21875 119.277344 218.679688 C 120.082031 219.347656 119.292969 218.472656 121.261719 217.941406 C 123.1875 217.417969 124.777344 218.070312 125.726562 219.96875 C 125.695312 219.1875 126.09375 218.433594 126.5625 217.613281 C 124.871094 216.0625 122.777344 214.957031 120.519531 214.546875 C 114.847656 213.523438 121.164062 211.101562 117.210938 205.804688 C 114.363281 201.988281 109.144531 201.761719 104.550781 201.140625 C 102.050781 200.800781 99.453125 199.769531 96.914062 199.792969 C 94.914062 199.816406 91.242188 201.371094 90.945312 203.679688 C 90.429688 207.683594 96.707031 206.414062 98.773438 207.050781 C 100.226562 207.5 100.761719 208.734375 99.675781 209.6875 " fill-opacity="1" fill-rule="nonzero"/><path fill="#000000" d="M 132.78125 237.53125 C 133.585938 235.03125 133.105469 235.070312 133.105469 233.171875 C 132.238281 232.449219 133.230469 233.40625 130.453125 235.5625 C 126.765625 238.421875 118.257812 241.964844 117.191406 242.402344 C 118.183594 246.230469 117.824219 244.839844 118.828125 248.710938 C 126.714844 246.652344 131.449219 241.679688 132.78125 237.53125 " fill-opacity="1" fill-rule="nonzero"/><path fill="#000000" d="M 131.921875 232.1875 C 127.785156 228.738281 129.035156 229.140625 128.882812 231.636719 C 128.804688 232.625 125.316406 236.132812 120.109375 233.867188 C 120.066406 233.050781 120.394531 233.078125 118.445312 234.199219 C 117.832031 236.269531 117.089844 239.453125 116.664062 241.449219 C 116.664062 241.449219 126.007812 237.636719 129.789062 234.707031 C 130.71875 233.984375 131.402344 233.101562 131.921875 232.1875 " fill-opacity="1" fill-rule="nonzero"/><path fill="#000000" d="M 131.929688 229.144531 C 131.738281 228.34375 131.503906 227.558594 131.132812 226.894531 C 130.730469 227.125 130.667969 227.160156 129.957031 227.570312 C 132.15625 229.402344 131.96875 229.300781 131.929688 229.144531 " fill-opacity="1" fill-rule="nonzero"/><path fill="#000000" d="M 134 229.984375 C 133.765625 228.664062 133.394531 227.140625 132.738281 225.96875 C 131.136719 226.929688 132.046875 225.570312 132.890625 229.925781 C 132.917969 230.078125 132.820312 229.953125 133.535156 230.546875 C 134.355469 231.230469 134.261719 231.394531 134 229.984375 " fill-opacity="1" fill-rule="nonzero"/><path fill="#000000" d="M 128.179688 219.96875 C 129.101562 218.492188 128.117188 218.363281 131.375 220.136719 C 131.207031 220.402344 131 220.742188 130.816406 221.035156 C 130.023438 222.292969 127.738281 221.992188 128.179688 219.96875 Z M 127.15625 221.195312 C 125.902344 221.339844 126.253906 220.960938 126.5 222.214844 C 126.824219 223.867188 125.570312 223.875 127.523438 223.953125 C 128.421875 223.988281 129.28125 223.976562 131.039062 223.359375 C 129.46875 221.234375 130.285156 222.890625 131.273438 221.324219 C 131.972656 220.210938 131.691406 220.308594 132.441406 220.71875 C 133.054688 220.179688 132.988281 220.457031 132.703125 219.652344 C 133.949219 216.613281 129.46875 213.839844 127.132812 218.171875 C 126.523438 219.304688 126.003906 220.703125 127.289062 220.703125 C 127.859375 220.703125 127.40625 220.339844 127.714844 221.1875 C 127.355469 221.15625 127.539062 221.152344 127.15625 221.195312 " fill-opacity="1" fill-rule="nonzero"/><path fill="#000000" d="M 133.207031 232.25 C 133.503906 231.25 134.621094 232.460938 129.242188 227.980469 C 128.304688 228.519531 128.078125 227.984375 133.207031 232.25 " fill-opacity="1" fill-rule="nonzero"/><path fill="#000000" d="M 115.421875 216.683594 C 117.25 217.722656 118.699219 219.597656 117.035156 218.410156 C 116.6875 218.171875 115.898438 217.441406 115.363281 216.726562 C 115.203125 216.511719 115.179688 216.542969 115.421875 216.683594 Z M 112.601562 215.640625 C 112.796875 216.640625 116.894531 219.546875 117.898438 219.632812 C 118.132812 219.652344 117.804688 219.425781 118.941406 220.375 C 119.152344 219.335938 119.460938 219.835938 118.585938 219.109375 C 118.539062 218.332031 116.417969 216.214844 115.453125 215.445312 C 113.996094 214.289062 113.332031 214.347656 113.484375 214.363281 C 113.179688 214.335938 112.53125 215.296875 112.601562 215.640625 " fill-opacity="1" fill-rule="nonzero"/><path fill="#000000" d="M 127.839844 228.789062 C 119.898438 233.359375 120.820312 232.625 120.855469 233.347656 C 121.882812 233.796875 123.539062 234.015625 124.867188 233.695312 C 127.316406 233.097656 128.125 231.359375 128.113281 231.5625 C 128.140625 231.144531 128.125 230.007812 128.007812 228.929688 C 127.976562 228.648438 128.023438 228.683594 127.839844 228.789062 " fill-opacity="1" fill-rule="nonzero"/><path fill="#000000" d="M 121.316406 223.472656 C 120.800781 222.21875 120.375 222.675781 123.679688 221.558594 C 123.867188 222.363281 124.09375 222.832031 124.09375 222.992188 C 124.085938 224.964844 121.847656 224.785156 121.316406 223.472656 Z M 120.703125 225.71875 C 118.378906 227.9375 117.445312 229.191406 116.28125 232.800781 C 117.414062 232.148438 117.335938 232.195312 117.71875 231.972656 C 118.585938 229.664062 119.109375 228.914062 120.539062 227.421875 C 121.382812 226.542969 120.667969 227.003906 120.699219 229.367188 C 120.710938 230.589844 119.632812 230.871094 127.300781 226.457031 C 127.457031 226.367188 127.449219 226.417969 127.351562 226.21875 C 127.101562 225.703125 126.90625 225.773438 127.476562 225.808594 C 128.65625 225.871094 128 226.054688 131.609375 223.976562 C 131.199219 224.132812 130.765625 224.269531 130.359375 224.386719 C 127.195312 225.28125 124.746094 224.199219 124.589844 224.175781 C 124.355469 224.140625 124.300781 224.238281 124.417969 223.964844 C 124.652344 223.421875 124.378906 223.714844 124.945312 223.765625 C 126.191406 223.871094 125.789062 222.300781 125.371094 221.128906 C 123.898438 217.015625 119.519531 218.261719 119.640625 221.304688 C 119.664062 221.96875 119.804688 221.589844 119.359375 222.378906 C 119.871094 223.011719 119.601562 222.941406 120.40625 222.667969 C 121.527344 225.46875 122.007812 224.425781 121.726562 224.804688 C 121.546875 224.917969 120.855469 225.574219 120.703125 225.71875 " fill-opacity="1" fill-rule="nonzero"/><path fill="#000000" d="M 113.0625 236.066406 C 112.554688 236.316406 112.03125 236.546875 111.464844 236.699219 C 113.441406 234.902344 116.148438 234.4375 113.0625 236.066406 Z M 137.421875 221.742188 C 136.875 222.292969 135.460938 223.382812 134.507812 223.523438 C 135.066406 222.738281 136.660156 221.984375 137.421875 221.742188 Z M 115.285156 235.125 C 128.398438 227.578125 133.980469 224.277344 134.28125 224.304688 C 135.546875 224.40625 138.804688 222.355469 138.957031 222.355469 C 139.941406 221.734375 140.296875 221.441406 140.132812 220.796875 C 140.066406 220.53125 139.808594 219.886719 139.53125 219.863281 C 138.199219 219.746094 134.316406 222.449219 133.757812 223.515625 C 133.609375 223.785156 135.507812 222.625 115 234.429688 C 114.050781 234.148438 109.539062 236.222656 108.789062 237.570312 C 108.59375 237.917969 109.429688 238.816406 109.679688 238.855469 C 110.839844 239.042969 115.339844 235.742188 115.285156 235.125 " fill-opacity="1" fill-rule="nonzero"/></svg>